<svg width="293" height="60" viewBox="0 0 293 60" fill="none" xmlns="http://www.w3.org/2000/svg">
<path d="M95.5848 48.5182C93.6011 46.5345 92.513 43.9868 92.5196 41.3463C92.523 38.8118 93.5281 36.4134 95.3526 34.6022C97.1704 32.7943 99.5822 31.7991 102.153 31.7991C102.525 31.7991 102.899 31.8223 103.268 31.8654C103.304 31.3015 103.321 30.7343 103.321 30.1604C103.321 14.6093 90.7114 2 75.1604 2C59.6093 2 47 14.6093 47 30.1604C46.9967 45.7148 59.6059 58.3241 75.1604 58.3241C83.4635 58.3241 90.9212 54.7248 96.076 49.0055L95.9798 48.9093L95.5848 48.5182ZM83.8783 13.2651C86.6349 13.2651 88.8708 16.735 88.8708 21.0176C88.8708 25.3003 86.6349 28.7735 83.8783 28.7735C81.1216 28.7735 78.8857 25.3003 78.8857 21.0176C78.8857 16.735 81.1183 13.2651 83.8783 13.2651ZM66.4428 13.2651C69.1995 13.2651 71.4353 16.735 71.4353 21.0176C71.4353 25.3003 69.1995 28.7735 66.4428 28.7735C63.6861 28.7735 61.4503 25.3003 61.4503 21.0176C61.4503 16.735 63.6861 13.2651 66.4428 13.2651ZM90.4334 39.3619C87.2588 44.5335 81.4401 47.7447 75.2467 47.7447C68.8908 47.7447 62.9958 44.4042 59.8613 39.0299C59.3239 38.1044 59.6357 36.9168 60.5579 36.3794C61.4834 35.8387 62.671 36.1505 63.2084 37.076C65.65 41.2658 70.261 43.8665 75.2437 43.8665C80.1002 43.8665 84.6514 41.3653 87.1261 37.3315C87.6867 36.4192 88.8809 36.1339 89.7931 36.6945C90.7054 37.2552 90.994 38.4494 90.4334 39.3616L90.4334 39.3619Z" fill="#FFC700"/>
<path d="M107.781 35.8248C106.473 34.515 104.819 33.7626 103.109 33.5542C102.79 33.5144 102.469 33.4978 102.15 33.4978C100.123 33.4978 98.0998 34.2641 96.5505 35.8067C93.4389 38.9017 93.3626 43.8909 96.786 47.3179L97.1775 47.7094C100.992 51.5242 106.698 57.2299 107.773 58.3082L107.773 58.3247C107.776 58.322 107.778 58.3192 107.781 58.3165C107.784 58.3192 107.787 58.322 107.789 58.3247L107.789 58.3082C108.864 57.2299 114.57 51.5242 118.385 47.7094L118.776 47.3179C122.2 43.8909 122.124 38.9017 119.012 35.8067C117.463 34.2641 115.439 33.4978 113.412 33.4978C113.094 33.4978 112.772 33.5144 112.454 33.5542C110.744 33.7626 109.09 34.515 107.781 35.8248Z" fill="#D80000"/>
<path fill-rule="evenodd" clip-rule="evenodd" d="M221.486 38.992C222.525 39.812 224.301 40.9327 226.816 42.354C229.385 43.7753 231.818 44.486 234.114 44.486C236.465 44.486 237.64 43.584 237.64 41.78C237.64 40.96 237.312 40.2493 236.656 39.648C236 38.992 234.797 38.254 233.048 37.434C231.299 36.614 229.987 35.9853 229.112 35.548C228.237 35.056 227.062 34.2907 225.586 33.252C224.165 32.1587 223.071 31.038 222.306 29.89C220.119 26.774 219.026 22.8107 219.026 18C219.026 13.1893 220.803 9.144 224.356 5.864C227.964 2.52933 232.665 0.862 238.46 0.862C242.396 0.862 246.031 1.29933 249.366 2.174C252.701 2.994 254.423 4.08733 254.532 5.454V5.946C254.532 7.85933 253.931 10.292 252.728 13.244C251.525 16.1413 250.678 17.754 250.186 18.082C246.687 16.278 243.544 15.376 240.756 15.376C238.023 15.376 236.656 16.36 236.656 18.328C236.656 19.5307 237.667 20.5967 239.69 21.526C240.127 21.7447 240.756 22.0453 241.576 22.428C242.396 22.8107 243.325 23.2753 244.364 23.822C245.457 24.314 246.605 24.97 247.808 25.79C249.065 26.5553 250.405 27.594 251.826 28.906C254.723 31.6393 256.172 35.2473 256.172 39.73C256.172 45.5793 254.559 50.3627 251.334 54.08C248.109 57.7973 243.134 59.7107 236.41 59.82C233.13 59.82 230.151 59.5467 227.472 59C224.848 58.4533 222.552 57.3873 220.584 55.802C218.616 54.2167 217.632 52.3033 217.632 50.062C217.632 47.8207 218.042 45.6067 218.862 43.42C219.682 41.1787 220.557 39.7027 221.486 38.992ZM157.386 57.196C157.386 58.344 154.816 58.918 149.678 58.918C144.539 58.918 141.751 58.508 141.314 57.688L127.62 32.104V57.606C127.62 58.59 125.078 59.082 119.994 59.082C114.964 59.082 112.45 58.59 112.45 57.606V56.4738C114.672 54.251 117.56 51.3624 119.799 49.1236L120.191 48.7322L120.191 48.7314C124.366 44.5522 124.348 38.2944 120.423 34.3894C118.482 32.4571 115.944 31.4978 113.412 31.4978C113.102 31.4978 112.779 31.5107 112.45 31.5426V2.748C112.45 1.928 114.609 1.518 118.928 1.518C120.622 1.518 122.59 1.682 124.832 2.01C127.128 2.28333 128.522 2.83 129.014 3.65L142.134 28.906V3.158C142.134 2.11933 144.676 1.6 149.76 1.6C154.844 1.6 157.386 2.11933 157.386 3.158V57.196ZM112.45 53.645V33.5547C112.451 33.5545 112.452 33.5543 112.454 33.5542C112.772 33.5144 113.094 33.4978 113.412 33.4978C115.439 33.4978 117.463 34.2641 119.012 35.8067C122.124 38.9017 122.2 43.8909 118.776 47.3179L118.385 47.7094C116.598 49.4964 114.396 51.6982 112.45 53.645ZM0.100006 55.228V6.028C0.100006 4.66134 0.428006 3.59534 1.08401 2.83C1.79467 2.01 2.69667 1.6 3.79001 1.6H17.484C26.176 1.6 32.7633 3.78667 37.246 8.16C41.7833 12.5333 44.052 19.4213 44.052 28.824C44.052 48.9413 35.4693 59 18.304 59H4.28201C1.49401 59 0.100006 57.7427 0.100006 55.228ZM15.844 17.18V41.698C15.844 42.846 15.926 43.584 16.09 43.912C16.254 44.1853 16.746 44.322 17.566 44.322C20.5727 44.322 22.8413 43.2013 24.372 40.96C25.9573 38.7187 26.75 35.0013 26.75 29.808C26.75 24.56 25.93 21.1433 24.29 19.558C22.7047 17.9727 20.1627 17.18 16.664 17.18H15.844ZM196.453 56.868C196.836 58.3987 199.406 59.164 204.161 59.164C205.637 59.164 207.633 59.0547 210.147 58.836C212.662 58.6173 213.919 58.3167 213.919 57.934L199.733 2.338C199.733 1.90067 195.989 1.682 188.499 1.682C181.01 1.682 177.265 1.90067 177.265 2.338L162.751 57.852C162.751 58.016 163.38 58.262 164.637 58.59C165.895 58.8633 167.835 59 170.459 59C175.379 59 178.003 58.1527 178.331 56.458L180.709 46.29H193.747L196.453 56.868ZM191.369 35.876H182.759L187.187 18.902H187.679L191.369 35.876ZM268.328 15.704V44.896H262.67C261.741 44.896 261.112 46.0713 260.784 48.422C260.566 49.57 260.456 50.7453 260.456 51.948C260.456 53.1507 260.566 54.326 260.784 55.474C261.112 57.8247 261.741 59 262.67 59H290.304C291.234 59 291.89 57.8247 292.272 55.474C292.491 54.326 292.6 53.1507 292.6 51.948C292.6 50.7453 292.491 49.57 292.272 48.422C291.89 46.0713 291.234 44.896 290.304 44.896H284.564V15.704H290.058C290.988 15.704 291.616 14.5287 291.944 12.178C292.163 11.03 292.272 9.85467 292.272 8.652C292.272 7.44933 292.163 6.274 291.944 5.126C291.616 2.77533 290.988 1.6 290.058 1.6H262.506C261.577 1.6 260.921 2.77533 260.538 5.126C260.374 6.274 260.292 7.44933 260.292 8.652C260.292 9.85467 260.374 11.03 260.538 12.178C260.921 14.5287 261.577 15.704 262.506 15.704H268.328Z" fill="#AB2AE8"/>
<path d="M107.781 35.8248C106.473 34.515 104.819 33.7626 103.109 33.5542C102.79 33.5144 102.469 33.4978 102.15 33.4978C100.123 33.4978 98.0998 34.2641 96.5505 35.8067C93.4389 38.9017 93.3626 43.8909 96.786 47.3179L97.1775 47.7094C100.992 51.5242 106.698 57.2299 107.773 58.3082L107.773 58.3247C107.776 58.322 107.778 58.3192 107.781 58.3165C107.784 58.3192 107.787 58.322 107.789 58.3247L107.789 58.3082C108.864 57.2299 114.57 51.5242 118.385 47.7094L118.776 47.3179C122.2 43.8909 122.124 38.9017 119.012 35.8067C117.463 34.2641 115.439 33.4978 113.412 33.4978C113.094 33.4978 112.772 33.5144 112.454 33.5542C110.744 33.7626 109.09 34.515 107.781 35.8248Z" fill="#D80000"/>
</svg>
